<svg width="84" height="24" viewBox="0 0 84 24" fill="none" xmlns="http://www.w3.org/2000/svg">
<path d="M30.0684 20.7822C29.8177 20.7822 29.599 20.7663 29.4121 20.7344C29.2207 20.707 29.0566 20.6683 28.9199 20.6182V19.2441C29.0658 19.2806 29.223 19.3125 29.3916 19.3398C29.5602 19.3672 29.7402 19.3809 29.9316 19.3809C30.1823 19.3809 30.4102 19.333 30.6152 19.2373C30.8203 19.1416 30.9821 18.9684 31.1006 18.7178C31.2236 18.4671 31.2852 18.1139 31.2852 17.6582V8.00586H32.9258V17.6035C32.9258 18.3464 32.8073 18.9502 32.5703 19.415C32.3333 19.8844 32.0007 20.2285 31.5723 20.4473C31.1439 20.6706 30.6426 20.7822 30.0684 20.7822ZM42.0449 14.1992C42.0449 14.8281 41.9629 15.3864 41.7988 15.874C41.6348 16.3617 41.3955 16.7741 41.0811 17.1113C40.7666 17.444 40.3883 17.6992 39.9463 17.877C39.5042 18.0501 39.0052 18.1367 38.4492 18.1367C37.9297 18.1367 37.4535 18.0501 37.0205 17.877C36.5876 17.6992 36.2116 17.444 35.8926 17.1113C35.5781 16.7741 35.3343 16.3617 35.1611 15.874C34.988 15.3864 34.9014 14.8281 34.9014 14.1992C34.9014 13.3652 35.0449 12.6589 35.332 12.0801C35.6237 11.4967 36.0384 11.0524 36.5762 10.7471C37.1139 10.4417 37.7542 10.2891 38.4971 10.2891C39.1943 10.2891 39.8096 10.4417 40.3428 10.7471C40.876 11.0524 41.293 11.4967 41.5938 12.0801C41.8945 12.6634 42.0449 13.3698 42.0449 14.1992ZM36.5557 14.1992C36.5557 14.7507 36.6217 15.2223 36.7539 15.6143C36.8906 16.0062 37.1003 16.307 37.3828 16.5166C37.6654 16.7217 38.0299 16.8242 38.4766 16.8242C38.9232 16.8242 39.2878 16.7217 39.5703 16.5166C39.8529 16.307 40.0602 16.0062 40.1924 15.6143C40.3245 15.2223 40.3906 14.7507 40.3906 14.1992C40.3906 13.6478 40.3245 13.1807 40.1924 12.7979C40.0602 12.4105 39.8529 12.1165 39.5703 11.916C39.2878 11.7109 38.9209 11.6084 38.4697 11.6084C37.8044 11.6084 37.319 11.8317 37.0137 12.2783C36.7083 12.7249 36.5557 13.3652 36.5557 14.1992ZM45.4971 7.36328V9.92676C45.4971 10.223 45.488 10.5146 45.4697 10.8018C45.4561 11.0843 45.4424 11.3053 45.4287 11.4648H45.4971C45.7021 11.1367 45.987 10.861 46.3516 10.6377C46.7207 10.4098 47.1924 10.2959 47.7666 10.2959C48.6644 10.2959 49.3867 10.6263 49.9336 11.2871C50.4805 11.9434 50.7539 12.9163 50.7539 14.2061C50.7539 15.0628 50.6286 15.7829 50.3779 16.3662C50.1273 16.9495 49.7741 17.3916 49.3184 17.6924C48.8672 17.9886 48.3363 18.1367 47.7256 18.1367C47.1514 18.1367 46.6865 18.0319 46.3311 17.8223C45.9801 17.6081 45.7044 17.3597 45.5039 17.0771H45.3877L45.0938 18H43.8906V7.36328H45.4971ZM47.3428 11.6016C46.887 11.6016 46.5247 11.6927 46.2559 11.875C45.9915 12.0573 45.8001 12.3307 45.6816 12.6953C45.5632 13.0553 45.5016 13.5133 45.4971 14.0693V14.2129C45.4971 15.056 45.6292 15.7008 45.8936 16.1475C46.1624 16.5941 46.6501 16.8174 47.3564 16.8174C47.917 16.8174 48.3477 16.5918 48.6484 16.1406C48.9492 15.6849 49.0996 15.0332 49.0996 14.1855C49.0996 13.3288 48.9492 12.6839 48.6484 12.251C48.3522 11.818 47.917 11.6016 47.3428 11.6016ZM58.5469 15.2793C58.5469 15.8717 58.401 16.3822 58.1094 16.8105C57.8223 17.2389 57.4076 17.5671 56.8652 17.7949C56.3275 18.0228 55.6849 18.1367 54.9375 18.1367C54.5729 18.1367 54.2243 18.1162 53.8916 18.0752C53.5589 18.0342 53.2445 17.9749 52.9482 17.8975C52.6566 17.8154 52.39 17.7174 52.1484 17.6035V16.0586C52.554 16.2363 53.0075 16.3981 53.5088 16.5439C54.0101 16.6852 54.5205 16.7559 55.04 16.7559C55.4639 16.7559 55.8148 16.7012 56.0928 16.5918C56.3753 16.4779 56.585 16.3184 56.7217 16.1133C56.8584 15.9036 56.9268 15.6598 56.9268 15.3818C56.9268 15.0856 56.847 14.835 56.6875 14.6299C56.528 14.4248 56.2865 14.238 55.9629 14.0693C55.6439 13.8962 55.2428 13.7116 54.7598 13.5156C54.4316 13.3835 54.1172 13.2331 53.8164 13.0645C53.5202 12.8958 53.2559 12.6976 53.0234 12.4697C52.791 12.2419 52.6064 11.973 52.4697 11.6631C52.3376 11.3486 52.2715 10.9795 52.2715 10.5557C52.2715 9.99056 52.4059 9.50749 52.6748 9.10645C52.9482 8.7054 53.3311 8.39779 53.8232 8.18359C54.32 7.9694 54.8988 7.8623 55.5596 7.8623C56.0837 7.8623 56.5758 7.91699 57.0361 8.02637C57.501 8.13574 57.9567 8.29069 58.4033 8.49121L57.8838 9.81055C57.4736 9.64193 57.0749 9.50749 56.6875 9.40723C56.3047 9.30697 55.9128 9.25684 55.5117 9.25684C55.1654 9.25684 54.8714 9.30924 54.6299 9.41406C54.3883 9.51888 54.2038 9.66699 54.0762 9.8584C53.9531 10.0452 53.8916 10.2686 53.8916 10.5283C53.8916 10.82 53.9622 11.0661 54.1035 11.2666C54.2493 11.4626 54.4727 11.6426 54.7734 11.8066C55.0788 11.9707 55.4707 12.153 55.9492 12.3535C56.5007 12.5814 56.9678 12.8206 57.3506 13.0713C57.738 13.3219 58.0342 13.6227 58.2393 13.9736C58.4443 14.32 58.5469 14.7552 58.5469 15.2793ZM63.3252 10.2891C63.9997 10.2891 64.5785 10.4281 65.0615 10.7061C65.5446 10.984 65.916 11.3783 66.1758 11.8887C66.4355 12.3991 66.5654 13.0098 66.5654 13.7207V14.582H61.5137C61.5319 15.3158 61.7279 15.8809 62.1016 16.2773C62.4798 16.6738 63.0085 16.8721 63.6875 16.8721C64.1706 16.8721 64.6035 16.8265 64.9863 16.7354C65.3737 16.6396 65.7725 16.5007 66.1826 16.3184V17.624C65.8044 17.8018 65.4193 17.9316 65.0273 18.0137C64.6354 18.0957 64.166 18.1367 63.6191 18.1367C62.8763 18.1367 62.2223 17.9932 61.6572 17.7061C61.0967 17.4144 60.6569 16.9814 60.3379 16.4072C60.0234 15.833 59.8662 15.1198 59.8662 14.2676C59.8662 13.4199 60.0098 12.6999 60.2969 12.1074C60.584 11.515 60.9873 11.0638 61.5068 10.7539C62.0264 10.444 62.6325 10.2891 63.3252 10.2891ZM63.3252 11.499C62.8193 11.499 62.4092 11.6631 62.0947 11.9912C61.7848 12.3193 61.6025 12.8001 61.5479 13.4336H64.9932C64.9886 13.0553 64.9248 12.7204 64.8018 12.4287C64.6833 12.137 64.501 11.9092 64.2549 11.7451C64.0133 11.5811 63.7035 11.499 63.3252 11.499ZM71.3916 10.2891C72.0661 10.2891 72.6449 10.4281 73.1279 10.7061C73.611 10.984 73.9824 11.3783 74.2422 11.8887C74.502 12.3991 74.6318 13.0098 74.6318 13.7207V14.582H69.5801C69.5983 15.3158 69.7943 15.8809 70.168 16.2773C70.5462 16.6738 71.0749 16.8721 71.7539 16.8721C72.237 16.8721 72.6699 16.8265 73.0527 16.7354C73.4401 16.6396 73.8389 16.5007 74.249 16.3184V17.624C73.8708 17.8018 73.4857 17.9316 73.0938 18.0137C72.7018 18.0957 72.2324 18.1367 71.6855 18.1367C70.9427 18.1367 70.2887 17.9932 69.7236 17.7061C69.1631 17.4144 68.7233 16.9814 68.4043 16.4072C68.0898 15.833 67.9326 15.1198 67.9326 14.2676C67.9326 13.4199 68.0762 12.6999 68.3633 12.1074C68.6504 11.515 69.0537 11.0638 69.5732 10.7539C70.0928 10.444 70.6989 10.2891 71.3916 10.2891ZM71.3916 11.499C70.8857 11.499 70.4756 11.6631 70.1611 11.9912C69.8512 12.3193 69.6689 12.8001 69.6143 13.4336H73.0596C73.055 13.0553 72.9912 12.7204 72.8682 12.4287C72.7497 12.137 72.5674 11.9092 72.3213 11.7451C72.0798 11.5811 71.7699 11.499 71.3916 11.499ZM78.0498 7.36328V12.5039C78.0498 12.7363 78.0407 12.9915 78.0225 13.2695C78.0042 13.543 77.986 13.8005 77.9678 14.042H78.002C78.1204 13.8825 78.2617 13.6956 78.4258 13.4814C78.5944 13.2673 78.7539 13.0804 78.9043 12.9209L81.2148 10.4326H83.0605L80.0322 13.6865L83.2588 18H81.3721L78.9521 14.6777L78.0498 15.4502V18H76.4434V7.36328H78.0498Z" fill="white"/>
<path d="M12 2L2 7L12 12L22 7L12 2Z" stroke="white" stroke-width="2" stroke-linecap="round" stroke-linejoin="round"/>
<path d="M2 17L12 22L22 17" stroke="white" stroke-width="2" stroke-linecap="round" stroke-linejoin="round"/>
<path d="M2 12L12 17L22 12" stroke="white" stroke-width="2" stroke-linecap="round" stroke-linejoin="round"/>
</svg>
