<?xml version="1.0" encoding="UTF-8"?>
<!DOCTYPE svg PUBLIC "-//W3C//DTD SVG 1.1//EN" "http://www.w3.org/Graphics/SVG/1.1/DTD/svg11.dtd">
<!-- Creator: CorelDRAW 2019 -->
<svg xmlns="http://www.w3.org/2000/svg" xml:space="preserve" width="310mm" height="78mm" version="1.1" style="shape-rendering:geometricPrecision; text-rendering:geometricPrecision; image-rendering:optimizeQuality; fill-rule:evenodd; clip-rule:evenodd"
viewBox="0 0 5078.14 1277.73"
 xmlns:xlink="http://www.w3.org/1999/xlink"
 xmlns:xodm="http://www.corel.com/coreldraw/odm/2003">
 <defs>
  <style type="text/css">
   <![CDATA[
    .fil2 {fill:none}
    .fil1 {fill:#0D6EFD;fill-rule:nonzero}
    .fil0 {fill:#0DCAF0;fill-rule:nonzero}
   ]]>
  </style>
   <clipPath id="id0">
    <path d="M-0 0l5078.14 0 0 1277.73 -5078.14 0 0 -1277.73z"/>
   </clipPath>
 </defs>
 <g id="Layer_x0020_1">
  <metadata id="CorelCorpID_0Corel-Layer"/>
  <g>
  </g>
  <g style="clip-path:url(#id0)">
   <g>
    <g id="_1032510336">
    </g>
    <g id="_1032509880">
    </g>
    <g id="_1032508848">
    </g>
    <g id="_1032507000">
    </g>
    <g id="_1032505968">
    </g>
    <g id="_1032504528">
    </g>
    <g id="_1032503472">
    </g>
    <g id="_1032497952">
    </g>
    <g id="_1226458240">
    </g>
    <g id="_1226476576">
    </g>
    <g id="_1226476720">
    </g>
    <g id="_1226462296">
    </g>
    <g id="_1226462152">
    </g>
    <g id="_1226461384">
    </g>
    <g id="_1226461504">
    </g>
    <g id="_1226458696">
     <path class="fil0" d="M834.92 1272.3c-104.13,0 -202.01,-52.11 -275.7,-146.79 -27.71,-35.59 -50.74,-75.59 -68.71,-118.77l133.14 0.33c4.25,6.25 8.67,12.34 13.28,18.26 52.92,67.98 123.21,105.41 197.97,105.41 0.15,0 0.31,0 0.46,0l1310.91 -3.21c0.04,0 0.08,0 0.11,0 30.34,0 54.94,31.6 55,70.65 0.06,39.08 -24.52,70.84 -54.9,70.91l-1310.93 3.21c-0.21,0 -0.43,0 -0.65,0zm888.86 -973.7c149.23,70.58 255.97,255.31 255.97,471.53l0 47.52c0,39.08 -24.63,70.78 -55,70.78 -30.38,0 -55.01,-31.69 -55.01,-70.78l0 -47.52c0,-117.27 -43.73,-221.61 -111.3,-287.51 -2.41,-65.36 -14.57,-127.48 -34.67,-184.02z"/>
     <path class="fil1" d="M1368.71 1008.88c-0,0 -0.01,0 -0.01,0l-0.65 0 -1310.94 -3.21c-23.21,-0.06 -43.9,-18.86 -51.7,-46.99 -7.81,-28.13 -1.04,-59.53 16.88,-78.49l201.57 -213.11 0 -160.37c0,-276.9 175.05,-502.16 390.22,-502.16l754.6 0c215.17,0 390.22,225.27 390.22,502.16 0,134.15 -40.59,260.26 -114.3,355.1 -73.71,94.83 -171.69,147.05 -275.9,147.05zm-1158.26 -144.4l1158.25 2.83c74.84,0 145.19,-37.5 198.12,-105.6 52.92,-68.11 82.07,-158.67 82.07,-255 0,-198.84 -125.71,-360.6 -280.21,-360.6l-754.6 -0c-154.51,0 -280.21,161.77 -280.21,360.6l0 193.83c0,21.18 -7.37,41.25 -20.09,54.69l-103.33 109.25z"/>
     <path class="fil1" d="M1336.47 577.5l-105.29 0c-30.37,0 -55,-31.69 -55,-70.78 0,-39.09 24.63,-70.78 55,-70.78l105.29 0c30.37,0 55,31.69 55,70.78 0,39.09 -24.63,70.78 -55,70.78z"/>
     <path class="fil1" d="M1042.76 577.5l-105.29 0c-30.37,0 -55,-31.69 -55,-70.78 0,-39.09 24.63,-70.78 55,-70.78l105.29 0c30.38,0 55,31.69 55,70.78 0,39.09 -24.62,70.78 -55,70.78z"/>
     <path class="fil1" d="M749.07 577.5l-105.29 0c-30.37,0 -55,-31.69 -55,-70.78 0,-39.09 24.63,-70.78 55,-70.78l105.29 0c30.38,0 55,31.69 55,70.78 0,39.09 -24.63,70.78 -55,70.78z"/>
     <path class="fil1" d="M2223.63 1013.26l-166.27 -833.54 196.01 0 44.53 405.32c4.99,44.52 8.86,81.65 11.82,111.58 2.95,29.93 5.17,56.71 7.02,80.18 2.58,-34.73 5.54,-68.17 8.87,-100.13 3.51,-32.14 7.57,-63 12.2,-92.55l62.44 -404.39 195.64 0 60.04 403.84c2.58,16.26 7.02,53.76 13.48,112.51 4.07,34.36 7.21,61.33 9.79,81.28 3.88,-50.25 7.21,-89.6 9.98,-118.05 2.76,-28.45 5.3,-52.27 7.39,-71.49 14.78,-136.03 29.55,-272.05 44.34,-408.08l196.57 0 -165.16 833.54 -210.6 0 -45.45 -344.73c-3.88,-30.3 -7.39,-62.25 -10.53,-95.51 -2.96,-33.44 -5.73,-67.98 -8.31,-103.83 -2.77,41.19 -5.92,77.77 -8.87,109.92 -3.14,32.15 -6.47,62.26 -9.98,90.52l-43.23 343.61 -211.71 0zm1121.74 -322.56l191.76 0c0.37,4.99 0.74,10.53 0.93,16.26 0.18,5.73 0.18,14.41 0.18,25.86 0,101.79 -22.35,177.35 -66.88,226.49 -44.52,49.32 -112.87,73.9 -204.69,73.9 -54.13,0 -100.5,-9.05 -139.11,-26.97 -38.61,-18.11 -69.83,-45.45 -93.66,-81.84 -16.63,-26.05 -28.45,-62.07 -35.66,-108.26 -7.2,-46.19 -10.9,-119.34 -10.9,-219.65 0,-100.32 3.7,-173.66 10.9,-219.84 7.21,-46 19.03,-82.2 35.66,-108.07 23.47,-36.21 54.32,-63.36 92.56,-81.47 38.24,-18.29 83.87,-27.34 136.89,-27.34 91.26,0 159.62,25.31 205.25,75.92 45.63,50.62 68.54,126.55 68.54,227.41l0 8.13 -189.54 -0.56c-0.74,-56.52 -7.21,-96.25 -19.59,-119.16 -12.2,-22.9 -32.7,-34.36 -61.52,-34.36 -31.41,0 -53.02,14.04 -64.48,41.93 -11.64,27.9 -17.36,101.8 -17.36,221.51l0 15.89c0,128.76 5.72,207.83 17.36,236.84 11.46,29 32.89,43.6 64.29,43.6 29.37,0 49.7,-10.53 61.52,-31.59 11.64,-21.24 17.55,-60.41 17.55,-117.87l0 -36.76z"/>
     <path class="fil1" d="M3345.38 690.7l191.76 0c0.37,4.99 0.74,10.53 0.93,16.26 0.18,5.73 0.18,14.41 0.18,25.86 0,101.79 -22.35,177.35 -66.88,226.49 -44.52,49.32 -112.87,73.9 -204.69,73.9 -54.13,0 -100.5,-9.05 -139.11,-26.97 -38.61,-18.11 -69.83,-45.45 -93.66,-81.84 -16.63,-26.05 -28.45,-62.07 -35.66,-108.26 -7.2,-46.19 -10.9,-119.34 -10.9,-219.65 0,-100.32 3.7,-173.66 10.9,-219.84 7.21,-46 19.03,-82.2 35.66,-108.07 23.47,-36.21 54.32,-63.36 92.56,-81.47 38.24,-18.29 83.87,-27.34 136.89,-27.34 91.26,0 159.62,25.31 205.25,75.92 45.63,50.62 68.54,126.55 68.54,227.41l0 8.13 -189.54 -0.56c-0.74,-56.52 -7.21,-96.25 -19.59,-119.16 -12.2,-22.9 -32.7,-34.36 -61.52,-34.36 -31.41,0 -53.02,14.04 -64.48,41.93 -11.64,27.9 -17.36,101.8 -17.36,221.51l0 15.89c0,128.76 5.72,207.83 17.36,236.84 11.46,29 32.89,43.6 64.29,43.6 29.37,0 49.7,-10.53 61.52,-31.59 11.64,-21.24 17.55,-60.41 17.55,-117.87l0 -36.76zm307.23 322.56l0 -833.54 174.02 0 0 274.15c14.78,-26.41 33.81,-46.18 57.09,-59.3 23.28,-13.12 51.17,-19.77 83.68,-19.77 48.4,0 83.69,16.08 106.04,48.4 22.36,32.33 33.62,83.51 33.62,153.52l0 436.54 -174.02 0 0 -386.84c0,-50.06 -3.33,-81.29 -9.79,-93.48 -6.47,-12.38 -17.92,-18.47 -34.54,-18.47 -19.4,0 -34.55,9.42 -45.63,28.45 -10.9,18.85 -16.44,45.27 -16.44,79.26l0 391.09 -174.02 0zm843.33 -301.5c-45.07,12.75 -77.96,28.27 -98.65,47.11 -20.69,18.66 -31.03,42.12 -31.03,70.39 0,19.76 5.17,35.66 15.33,47.48 10.35,12.01 24.2,17.92 41.38,17.92 25.68,0 44.15,-8.68 55.61,-26.05 11.64,-17.18 17.37,-46.18 17.37,-87.01l0 -69.83zm22.17 301.5l-10.35 -57.45c-21.98,23.09 -46,40.46 -72.05,52.1 -26.23,11.64 -54.5,17.55 -85.16,17.55 -48.96,0 -87.75,-15.89 -116.39,-47.67 -28.63,-31.59 -43.05,-74.63 -43.05,-128.58 0,-47.29 12.2,-86.27 36.4,-116.94 24.38,-30.49 64.29,-57.09 119.89,-79.44 13.3,-4.99 31.22,-11.64 53.94,-19.95 65.22,-24.02 97.91,-50.81 97.91,-80.92 0,-18.47 -4.8,-32.33 -14.22,-41.93 -9.24,-9.61 -22.91,-14.41 -40.46,-14.41 -21.24,0 -37.14,6.47 -47.48,19.22 -10.16,12.93 -15.33,32.7 -15.33,59.48l0 4.43 -175.14 0c0,-70.75 19.59,-123.4 58.93,-157.76 39.35,-34.55 99.02,-51.72 179.01,-51.72 36.02,0 68.35,3.33 96.62,9.97 28.26,6.65 51.92,16.44 71.13,29 24.57,16.63 41.75,36.58 51.54,60.04 9.97,23.46 14.96,66.32 14.96,128.39l0 18.84 0 222.42c0,48.96 1.66,86.46 5.17,112.32 3.33,25.68 9.05,46.74 17,63l-182.89 0zm557.54 -2.03c-21.24,4.06 -39.9,7.02 -55.79,9.05 -15.89,2.03 -29.37,2.96 -40.64,2.96 -34.54,0 -64.1,-5.55 -88.49,-16.81 -24.38,-11.27 -42.31,-27.34 -53.94,-48.22 -7.57,-14.42 -12.74,-32.7 -15.89,-54.5 -3.14,-21.8 -4.62,-55.23 -4.62,-99.94l0 -77.41 0 -209.68 -67.61 0 0 -129.69 67.61 0 0 -172.92 176.24 0 0 172.92 83.13 0 0 129.69 -83.13 0 0 255.13c0,54.5 3.88,87.93 11.82,100.68 7.95,12.56 23.28,18.84 46,18.84 3.88,0 10.34,-0.55 19.4,-1.66 2.4,-0.37 4.43,-0.55 5.91,-0.55l0 122.11z"/>
    </g>
   </g>
  </g>
  <polygon class="fil2" points="-0,0 5078.14,0 5078.14,1277.73 -0,1277.73 "/>
 </g>
</svg>
