<?xml version="1.0" encoding="UTF-8"?>
<!DOCTYPE svg PUBLIC "-//W3C//DTD SVG 1.1//EN" "http://www.w3.org/Graphics/SVG/1.1/DTD/svg11.dtd">
<!-- Creator: CorelDRAW 2019 -->
<svg xmlns="http://www.w3.org/2000/svg" xml:space="preserve" width="148.166mm" height="148.166mm" version="1.1" style="shape-rendering:geometricPrecision; text-rendering:geometricPrecision; image-rendering:optimizeQuality; fill-rule:evenodd; clip-rule:evenodd"
viewBox="0 0 4381.11 4381.11"
 xmlns:xlink="http://www.w3.org/1999/xlink"
 xmlns:xodm="http://www.corel.com/coreldraw/odm/2003">
 <defs>
  <style type="text/css">
   <![CDATA[
    .fil2 {fill:none}
    .fil0 {fill:#9FA5A5}
    .fil1 {fill:white;fill-rule:nonzero}
   ]]>
  </style>
   <clipPath id="id0">
    <path d="M2190.56 0c1209.81,0 2190.56,980.75 2190.56,2190.56 0,1209.81 -980.75,2190.56 -2190.56,2190.56 -1209.81,0 -2190.56,-980.75 -2190.56,-2190.56 0,-1209.81 980.75,-2190.56 2190.56,-2190.56z"/>
   </clipPath>
 </defs>
 <g id="Layer_x0020_1">
  <metadata id="CorelCorpID_0Corel-Layer"/>
  <path class="fil0" d="M2190.56 0c1209.81,0 2190.56,980.75 2190.56,2190.56 0,1209.81 -980.75,2190.56 -2190.56,2190.56 -1209.81,0 -2190.56,-980.75 -2190.56,-2190.56 0,-1209.81 980.75,-2190.56 2190.56,-2190.56z"/>
  <g style="clip-path:url(#id0)">
   <g id="_569028536">
    <g>
     <circle class="fil1" cx="1203.79" cy="1796.87" r="674.71"/>
     <path class="fil1" d="M2366.75 3367.68c-136.17,-514.74 -606.42,-896.11 -1162.96,-896.11 -556.53,0 -1026.79,381.37 -1162.96,896.11 297.41,298.14 708.68,482.65 1162.96,482.65 454.29,0 865.55,-184.51 1162.96,-482.65z"/>
    </g>
    <g>
     <circle class="fil1" cx="3177.33" cy="1796.87" r="674.71"/>
     <path class="fil1" d="M4340.29 3367.68c-136.17,-514.74 -606.42,-896.11 -1162.96,-896.11 -556.53,0 -1026.79,381.37 -1162.96,896.11 297.41,298.14 708.67,482.65 1162.96,482.65 454.29,0 865.55,-184.51 1162.96,-482.65z"/>
    </g>
    <g>
     <g>
      <path class="fil1" d="M3090.25 1658.66c0,-496.89 -402.81,-899.7 -899.69,-899.7 -496.89,0 -899.7,402.81 -899.7,899.7 0,496.89 402.81,899.69 899.7,899.69 496.89,0 899.69,-402.81 899.69,-899.69z"/>
      <path id="1" class="fil0" d="M3090.25 1658.66c0,-496.89 -402.81,-899.7 -899.69,-899.7 -496.89,0 -899.7,402.81 -899.7,899.7 0,496.89 402.81,899.69 899.7,899.69 496.89,0 899.69,-402.81 899.69,-899.69zm-241.39 -658.31c168.48,168.48 272.68,401.22 272.68,658.31 0,257.08 -104.21,489.83 -272.68,658.31 -168.48,168.48 -401.22,272.68 -658.31,272.68 -257.08,0 -489.83,-104.21 -658.31,-272.68 -168.48,-168.48 -272.68,-401.22 -272.68,-658.31 0,-257.08 104.21,-489.83 272.68,-658.31 168.48,-168.48 401.22,-272.68 658.31,-272.68 257.08,0 489.83,104.21 658.31,272.68z"/>
     </g>
     <g>
      <path class="fil1" d="M3741.31 3753.27c-181.57,-686.38 -808.64,-1194.92 -1550.75,-1194.92 -742.12,0 -1369.18,508.54 -1550.75,1194.92 396.59,397.55 944.99,643.59 1550.75,643.59 605.76,0 1154.16,-246.04 1550.75,-643.59z"/>
      <path id="1" class="fil0" d="M3741.31 3753.27c-181.57,-686.38 -808.64,-1194.92 -1550.75,-1194.92 -742.12,0 -1369.18,508.54 -1550.75,1194.92 396.59,397.55 944.99,643.59 1550.75,643.59 605.76,0 1154.16,-246.04 1550.75,-643.59zm-555.38 -886.75c282.26,217.49 491.97,524.96 585.58,878.81l4.57 17.28 -12.64 12.67c-204.99,205.49 -449.92,371.06 -722.09,484.01 -262.17,108.8 -549.54,168.87 -850.79,168.87 -301.25,0 -588.63,-60.06 -850.8,-168.87 -272.17,-112.95 -517.09,-278.52 -722.08,-484.01l-12.63 -12.67 4.57 -17.28c93.6,-353.84 303.32,-661.31 585.58,-878.81 276.07,-212.72 621.44,-339.46 995.37,-339.46 373.93,0 719.3,126.74 995.37,339.46z"/>
     </g>
    </g>
   </g>
  </g>
  <path class="fil2" d="M2190.56 0c1209.81,0 2190.56,980.75 2190.56,2190.56 0,1209.81 -980.75,2190.56 -2190.56,2190.56 -1209.81,0 -2190.56,-980.75 -2190.56,-2190.56 0,-1209.81 980.75,-2190.56 2190.56,-2190.56z"/>
 </g>
</svg>
